<mxfile host="app.diagrams.net" modified="2023-09-29T03:19:46.668Z" agent="Mozilla/5.0 (Windows NT 10.0; Win64; x64) AppleWebKit/537.36 (KHTML, like Gecko) Chrome/117.0.0.0 Safari/537.36" etag="PH3FcyHVxLejDP8zcmFH" version="21.8.2" type="device">
  <diagram name="Página-1" id="0OhBt8H324vKsLxEOcKH">
    <mxGraphModel dx="1674" dy="750" grid="1" gridSize="10" guides="1" tooltips="1" connect="1" arrows="1" fold="1" page="1" pageScale="1" pageWidth="827" pageHeight="1169" math="0" shadow="0">
      <root>
        <mxCell id="0" />
        <mxCell id="1" parent="0" />
        <mxCell id="ZsuKzw9eglKgLbAO7jWE-1" value="Persona" style="swimlane;fontStyle=1;align=center;verticalAlign=top;childLayout=stackLayout;horizontal=1;startSize=26;horizontalStack=0;resizeParent=1;resizeParentMax=0;resizeLast=0;collapsible=1;marginBottom=0;whiteSpace=wrap;html=1;" vertex="1" parent="1">
          <mxGeometry x="340" y="102" width="160" height="118" as="geometry" />
        </mxCell>
        <mxCell id="ZsuKzw9eglKgLbAO7jWE-2" value="+RUT&amp;nbsp; varchar&lt;br&gt;+Nombre&amp;nbsp; varchar&lt;br&gt;+Apellido&amp;nbsp; varchar&lt;br&gt;+Telefono int&lt;br&gt;+Email&amp;nbsp; varchar" style="text;strokeColor=none;fillColor=none;align=left;verticalAlign=top;spacingLeft=4;spacingRight=4;overflow=hidden;rotatable=0;points=[[0,0.5],[1,0.5]];portConstraint=eastwest;whiteSpace=wrap;html=1;" vertex="1" parent="ZsuKzw9eglKgLbAO7jWE-1">
          <mxGeometry y="26" width="160" height="84" as="geometry" />
        </mxCell>
        <mxCell id="ZsuKzw9eglKgLbAO7jWE-3" value="" style="line;strokeWidth=1;fillColor=none;align=left;verticalAlign=middle;spacingTop=-1;spacingLeft=3;spacingRight=3;rotatable=0;labelPosition=right;points=[];portConstraint=eastwest;strokeColor=inherit;" vertex="1" parent="ZsuKzw9eglKgLbAO7jWE-1">
          <mxGeometry y="110" width="160" height="8" as="geometry" />
        </mxCell>
        <mxCell id="ZsuKzw9eglKgLbAO7jWE-5" value="Boleta" style="swimlane;fontStyle=1;align=center;verticalAlign=top;childLayout=stackLayout;horizontal=1;startSize=26;horizontalStack=0;resizeParent=1;resizeParentMax=0;resizeLast=0;collapsible=1;marginBottom=0;whiteSpace=wrap;html=1;" vertex="1" parent="1">
          <mxGeometry x="10" y="434" width="160" height="60" as="geometry" />
        </mxCell>
        <mxCell id="ZsuKzw9eglKgLbAO7jWE-6" value="+Monto&amp;nbsp; int" style="text;strokeColor=none;fillColor=none;align=left;verticalAlign=top;spacingLeft=4;spacingRight=4;overflow=hidden;rotatable=0;points=[[0,0.5],[1,0.5]];portConstraint=eastwest;whiteSpace=wrap;html=1;" vertex="1" parent="ZsuKzw9eglKgLbAO7jWE-5">
          <mxGeometry y="26" width="160" height="26" as="geometry" />
        </mxCell>
        <mxCell id="ZsuKzw9eglKgLbAO7jWE-7" value="" style="line;strokeWidth=1;fillColor=none;align=left;verticalAlign=middle;spacingTop=-1;spacingLeft=3;spacingRight=3;rotatable=0;labelPosition=right;points=[];portConstraint=eastwest;strokeColor=inherit;" vertex="1" parent="ZsuKzw9eglKgLbAO7jWE-5">
          <mxGeometry y="52" width="160" height="8" as="geometry" />
        </mxCell>
        <mxCell id="ZsuKzw9eglKgLbAO7jWE-9" value="Proveedor" style="swimlane;fontStyle=1;align=center;verticalAlign=top;childLayout=stackLayout;horizontal=1;startSize=26;horizontalStack=0;resizeParent=1;resizeParentMax=0;resizeLast=0;collapsible=1;marginBottom=0;whiteSpace=wrap;html=1;" vertex="1" parent="1">
          <mxGeometry x="630" y="280" width="160" height="78" as="geometry" />
        </mxCell>
        <mxCell id="ZsuKzw9eglKgLbAO7jWE-10" value="+Ubicación&amp;nbsp; varchar&lt;br&gt;+Email&amp;nbsp; varchar&lt;br&gt;+Nombre&amp;nbsp; varchar" style="text;strokeColor=none;fillColor=none;align=left;verticalAlign=top;spacingLeft=4;spacingRight=4;overflow=hidden;rotatable=0;points=[[0,0.5],[1,0.5]];portConstraint=eastwest;whiteSpace=wrap;html=1;" vertex="1" parent="ZsuKzw9eglKgLbAO7jWE-9">
          <mxGeometry y="26" width="160" height="44" as="geometry" />
        </mxCell>
        <mxCell id="ZsuKzw9eglKgLbAO7jWE-11" value="" style="line;strokeWidth=1;fillColor=none;align=left;verticalAlign=middle;spacingTop=-1;spacingLeft=3;spacingRight=3;rotatable=0;labelPosition=right;points=[];portConstraint=eastwest;strokeColor=inherit;" vertex="1" parent="ZsuKzw9eglKgLbAO7jWE-9">
          <mxGeometry y="70" width="160" height="8" as="geometry" />
        </mxCell>
        <mxCell id="ZsuKzw9eglKgLbAO7jWE-13" value="Sucursal" style="swimlane;fontStyle=1;align=center;verticalAlign=top;childLayout=stackLayout;horizontal=1;startSize=26;horizontalStack=0;resizeParent=1;resizeParentMax=0;resizeLast=0;collapsible=1;marginBottom=0;whiteSpace=wrap;html=1;" vertex="1" parent="1">
          <mxGeometry x="94" y="130" width="160" height="60" as="geometry" />
        </mxCell>
        <mxCell id="ZsuKzw9eglKgLbAO7jWE-14" value="+(Ubicacion)" style="text;strokeColor=none;fillColor=none;align=left;verticalAlign=top;spacingLeft=4;spacingRight=4;overflow=hidden;rotatable=0;points=[[0,0.5],[1,0.5]];portConstraint=eastwest;whiteSpace=wrap;html=1;" vertex="1" parent="ZsuKzw9eglKgLbAO7jWE-13">
          <mxGeometry y="26" width="160" height="26" as="geometry" />
        </mxCell>
        <mxCell id="ZsuKzw9eglKgLbAO7jWE-15" value="" style="line;strokeWidth=1;fillColor=none;align=left;verticalAlign=middle;spacingTop=-1;spacingLeft=3;spacingRight=3;rotatable=0;labelPosition=right;points=[];portConstraint=eastwest;strokeColor=inherit;" vertex="1" parent="ZsuKzw9eglKgLbAO7jWE-13">
          <mxGeometry y="52" width="160" height="8" as="geometry" />
        </mxCell>
        <mxCell id="ZsuKzw9eglKgLbAO7jWE-17" value="Pedido" style="swimlane;fontStyle=1;align=center;verticalAlign=top;childLayout=stackLayout;horizontal=1;startSize=26;horizontalStack=0;resizeParent=1;resizeParentMax=0;resizeLast=0;collapsible=1;marginBottom=0;whiteSpace=wrap;html=1;" vertex="1" parent="1">
          <mxGeometry x="10" y="284" width="160" height="68" as="geometry" />
        </mxCell>
        <mxCell id="ZsuKzw9eglKgLbAO7jWE-18" value="+Detalle&amp;nbsp; varchar&lt;br&gt;+Codigo&amp;nbsp; int" style="text;strokeColor=none;fillColor=none;align=left;verticalAlign=top;spacingLeft=4;spacingRight=4;overflow=hidden;rotatable=0;points=[[0,0.5],[1,0.5]];portConstraint=eastwest;whiteSpace=wrap;html=1;" vertex="1" parent="ZsuKzw9eglKgLbAO7jWE-17">
          <mxGeometry y="26" width="160" height="34" as="geometry" />
        </mxCell>
        <mxCell id="ZsuKzw9eglKgLbAO7jWE-19" value="" style="line;strokeWidth=1;fillColor=none;align=left;verticalAlign=middle;spacingTop=-1;spacingLeft=3;spacingRight=3;rotatable=0;labelPosition=right;points=[];portConstraint=eastwest;strokeColor=inherit;" vertex="1" parent="ZsuKzw9eglKgLbAO7jWE-17">
          <mxGeometry y="60" width="160" height="8" as="geometry" />
        </mxCell>
        <mxCell id="ZsuKzw9eglKgLbAO7jWE-22" value="Bodega" style="swimlane;fontStyle=1;align=center;verticalAlign=top;childLayout=stackLayout;horizontal=1;startSize=26;horizontalStack=0;resizeParent=1;resizeParentMax=0;resizeLast=0;collapsible=1;marginBottom=0;whiteSpace=wrap;html=1;" vertex="1" parent="1">
          <mxGeometry x="827" y="280" width="160" height="60" as="geometry" />
        </mxCell>
        <mxCell id="ZsuKzw9eglKgLbAO7jWE-23" value="+Capacidad&amp;nbsp; int" style="text;strokeColor=none;fillColor=none;align=left;verticalAlign=top;spacingLeft=4;spacingRight=4;overflow=hidden;rotatable=0;points=[[0,0.5],[1,0.5]];portConstraint=eastwest;whiteSpace=wrap;html=1;" vertex="1" parent="ZsuKzw9eglKgLbAO7jWE-22">
          <mxGeometry y="26" width="160" height="26" as="geometry" />
        </mxCell>
        <mxCell id="ZsuKzw9eglKgLbAO7jWE-24" value="" style="line;strokeWidth=1;fillColor=none;align=left;verticalAlign=middle;spacingTop=-1;spacingLeft=3;spacingRight=3;rotatable=0;labelPosition=right;points=[];portConstraint=eastwest;strokeColor=inherit;" vertex="1" parent="ZsuKzw9eglKgLbAO7jWE-22">
          <mxGeometry y="52" width="160" height="8" as="geometry" />
        </mxCell>
        <mxCell id="ZsuKzw9eglKgLbAO7jWE-26" value="Ingrediente" style="swimlane;fontStyle=1;align=center;verticalAlign=top;childLayout=stackLayout;horizontal=1;startSize=26;horizontalStack=0;resizeParent=1;resizeParentMax=0;resizeLast=0;collapsible=1;marginBottom=0;whiteSpace=wrap;html=1;" vertex="1" parent="1">
          <mxGeometry x="730" y="430" width="160" height="60" as="geometry" />
        </mxCell>
        <mxCell id="ZsuKzw9eglKgLbAO7jWE-27" value="+Nombre_sabor&amp;nbsp; varchar" style="text;strokeColor=none;fillColor=none;align=left;verticalAlign=top;spacingLeft=4;spacingRight=4;overflow=hidden;rotatable=0;points=[[0,0.5],[1,0.5]];portConstraint=eastwest;whiteSpace=wrap;html=1;" vertex="1" parent="ZsuKzw9eglKgLbAO7jWE-26">
          <mxGeometry y="26" width="160" height="26" as="geometry" />
        </mxCell>
        <mxCell id="ZsuKzw9eglKgLbAO7jWE-28" value="" style="line;strokeWidth=1;fillColor=none;align=left;verticalAlign=middle;spacingTop=-1;spacingLeft=3;spacingRight=3;rotatable=0;labelPosition=right;points=[];portConstraint=eastwest;strokeColor=inherit;" vertex="1" parent="ZsuKzw9eglKgLbAO7jWE-26">
          <mxGeometry y="52" width="160" height="8" as="geometry" />
        </mxCell>
        <mxCell id="ZsuKzw9eglKgLbAO7jWE-30" value="Producto" style="swimlane;fontStyle=1;align=center;verticalAlign=top;childLayout=stackLayout;horizontal=1;startSize=26;horizontalStack=0;resizeParent=1;resizeParentMax=0;resizeLast=0;collapsible=1;marginBottom=0;whiteSpace=wrap;html=1;" vertex="1" parent="1">
          <mxGeometry x="340" y="426" width="160" height="68" as="geometry" />
        </mxCell>
        <mxCell id="ZsuKzw9eglKgLbAO7jWE-31" value="+Precio&amp;nbsp; int&lt;br&gt;+Cantidad&amp;nbsp; int" style="text;strokeColor=none;fillColor=none;align=left;verticalAlign=top;spacingLeft=4;spacingRight=4;overflow=hidden;rotatable=0;points=[[0,0.5],[1,0.5]];portConstraint=eastwest;whiteSpace=wrap;html=1;" vertex="1" parent="ZsuKzw9eglKgLbAO7jWE-30">
          <mxGeometry y="26" width="160" height="34" as="geometry" />
        </mxCell>
        <mxCell id="ZsuKzw9eglKgLbAO7jWE-32" value="" style="line;strokeWidth=1;fillColor=none;align=left;verticalAlign=middle;spacingTop=-1;spacingLeft=3;spacingRight=3;rotatable=0;labelPosition=right;points=[];portConstraint=eastwest;strokeColor=inherit;" vertex="1" parent="ZsuKzw9eglKgLbAO7jWE-30">
          <mxGeometry y="60" width="160" height="8" as="geometry" />
        </mxCell>
        <mxCell id="ZsuKzw9eglKgLbAO7jWE-39" value="Cliente" style="swimlane;fontStyle=1;align=center;verticalAlign=top;childLayout=stackLayout;horizontal=1;startSize=26;horizontalStack=0;resizeParent=1;resizeParentMax=0;resizeLast=0;collapsible=1;marginBottom=0;whiteSpace=wrap;html=1;" vertex="1" parent="1">
          <mxGeometry x="450" y="280" width="160" height="68" as="geometry" />
        </mxCell>
        <mxCell id="ZsuKzw9eglKgLbAO7jWE-40" value="+nom_usuario&amp;nbsp; varchar&lt;br&gt;-Contraseña&amp;nbsp; varchar" style="text;strokeColor=none;fillColor=none;align=left;verticalAlign=top;spacingLeft=4;spacingRight=4;overflow=hidden;rotatable=0;points=[[0,0.5],[1,0.5]];portConstraint=eastwest;whiteSpace=wrap;html=1;" vertex="1" parent="ZsuKzw9eglKgLbAO7jWE-39">
          <mxGeometry y="26" width="160" height="34" as="geometry" />
        </mxCell>
        <mxCell id="ZsuKzw9eglKgLbAO7jWE-41" value="" style="line;strokeWidth=1;fillColor=none;align=left;verticalAlign=middle;spacingTop=-1;spacingLeft=3;spacingRight=3;rotatable=0;labelPosition=right;points=[];portConstraint=eastwest;strokeColor=inherit;" vertex="1" parent="ZsuKzw9eglKgLbAO7jWE-39">
          <mxGeometry y="60" width="160" height="8" as="geometry" />
        </mxCell>
        <mxCell id="ZsuKzw9eglKgLbAO7jWE-43" value="Empleado" style="swimlane;fontStyle=1;align=center;verticalAlign=top;childLayout=stackLayout;horizontal=1;startSize=26;horizontalStack=0;resizeParent=1;resizeParentMax=0;resizeLast=0;collapsible=1;marginBottom=0;whiteSpace=wrap;html=1;" vertex="1" parent="1">
          <mxGeometry x="230" y="280" width="160" height="60" as="geometry" />
        </mxCell>
        <mxCell id="ZsuKzw9eglKgLbAO7jWE-44" value="+Id empleado&amp;nbsp; int" style="text;strokeColor=none;fillColor=none;align=left;verticalAlign=top;spacingLeft=4;spacingRight=4;overflow=hidden;rotatable=0;points=[[0,0.5],[1,0.5]];portConstraint=eastwest;whiteSpace=wrap;html=1;" vertex="1" parent="ZsuKzw9eglKgLbAO7jWE-43">
          <mxGeometry y="26" width="160" height="26" as="geometry" />
        </mxCell>
        <mxCell id="ZsuKzw9eglKgLbAO7jWE-45" value="" style="line;strokeWidth=1;fillColor=none;align=left;verticalAlign=middle;spacingTop=-1;spacingLeft=3;spacingRight=3;rotatable=0;labelPosition=right;points=[];portConstraint=eastwest;strokeColor=inherit;" vertex="1" parent="ZsuKzw9eglKgLbAO7jWE-43">
          <mxGeometry y="52" width="160" height="8" as="geometry" />
        </mxCell>
        <mxCell id="ZsuKzw9eglKgLbAO7jWE-50" value="" style="endArrow=block;endSize=16;endFill=0;html=1;rounded=0;" edge="1" parent="1" source="ZsuKzw9eglKgLbAO7jWE-43" target="ZsuKzw9eglKgLbAO7jWE-1">
          <mxGeometry width="160" relative="1" as="geometry">
            <mxPoint x="330" y="390" as="sourcePoint" />
            <mxPoint x="490" y="390" as="targetPoint" />
          </mxGeometry>
        </mxCell>
        <mxCell id="ZsuKzw9eglKgLbAO7jWE-51" value="" style="endArrow=block;endSize=16;endFill=0;html=1;rounded=0;" edge="1" parent="1" source="ZsuKzw9eglKgLbAO7jWE-39" target="ZsuKzw9eglKgLbAO7jWE-1">
          <mxGeometry width="160" relative="1" as="geometry">
            <mxPoint x="363" y="290" as="sourcePoint" />
            <mxPoint x="417" y="236" as="targetPoint" />
          </mxGeometry>
        </mxCell>
        <mxCell id="ZsuKzw9eglKgLbAO7jWE-56" value="" style="endArrow=none;html=1;rounded=0;" edge="1" parent="1" source="ZsuKzw9eglKgLbAO7jWE-13" target="ZsuKzw9eglKgLbAO7jWE-43">
          <mxGeometry relative="1" as="geometry">
            <mxPoint x="190.52336448598135" y="216" as="sourcePoint" />
            <mxPoint x="490" y="390" as="targetPoint" />
          </mxGeometry>
        </mxCell>
        <mxCell id="ZsuKzw9eglKgLbAO7jWE-57" value="" style="endArrow=none;html=1;rounded=0;" edge="1" parent="1" source="ZsuKzw9eglKgLbAO7jWE-43" target="ZsuKzw9eglKgLbAO7jWE-30">
          <mxGeometry relative="1" as="geometry">
            <mxPoint x="321.5322580645161" y="366" as="sourcePoint" />
            <mxPoint x="490" y="390" as="targetPoint" />
          </mxGeometry>
        </mxCell>
        <mxCell id="ZsuKzw9eglKgLbAO7jWE-58" value="" style="endArrow=none;html=1;rounded=0;" edge="1" parent="1" source="ZsuKzw9eglKgLbAO7jWE-30" target="ZsuKzw9eglKgLbAO7jWE-39">
          <mxGeometry relative="1" as="geometry">
            <mxPoint x="330" y="390" as="sourcePoint" />
            <mxPoint x="517.6724137931033" y="374" as="targetPoint" />
          </mxGeometry>
        </mxCell>
        <mxCell id="ZsuKzw9eglKgLbAO7jWE-59" value="" style="endArrow=none;html=1;rounded=0;" edge="1" parent="1" source="ZsuKzw9eglKgLbAO7jWE-43" target="ZsuKzw9eglKgLbAO7jWE-17">
          <mxGeometry relative="1" as="geometry">
            <mxPoint x="330" y="390" as="sourcePoint" />
            <mxPoint x="490" y="390" as="targetPoint" />
          </mxGeometry>
        </mxCell>
        <mxCell id="ZsuKzw9eglKgLbAO7jWE-60" value="" style="endArrow=none;html=1;rounded=0;" edge="1" parent="1" source="ZsuKzw9eglKgLbAO7jWE-17" target="ZsuKzw9eglKgLbAO7jWE-5">
          <mxGeometry relative="1" as="geometry">
            <mxPoint x="330" y="390" as="sourcePoint" />
            <mxPoint x="490" y="390" as="targetPoint" />
          </mxGeometry>
        </mxCell>
        <mxCell id="ZsuKzw9eglKgLbAO7jWE-61" value="" style="endArrow=none;html=1;rounded=0;" edge="1" parent="1" source="ZsuKzw9eglKgLbAO7jWE-5" target="ZsuKzw9eglKgLbAO7jWE-30">
          <mxGeometry relative="1" as="geometry">
            <mxPoint x="330" y="390" as="sourcePoint" />
            <mxPoint x="490" y="390" as="targetPoint" />
          </mxGeometry>
        </mxCell>
        <mxCell id="ZsuKzw9eglKgLbAO7jWE-62" value="" style="endArrow=none;html=1;rounded=0;" edge="1" parent="1" source="ZsuKzw9eglKgLbAO7jWE-30" target="ZsuKzw9eglKgLbAO7jWE-26">
          <mxGeometry relative="1" as="geometry">
            <mxPoint x="330" y="390" as="sourcePoint" />
            <mxPoint x="490" y="390" as="targetPoint" />
          </mxGeometry>
        </mxCell>
        <mxCell id="ZsuKzw9eglKgLbAO7jWE-63" value="" style="endArrow=none;html=1;rounded=0;" edge="1" parent="1" source="ZsuKzw9eglKgLbAO7jWE-26" target="ZsuKzw9eglKgLbAO7jWE-9">
          <mxGeometry relative="1" as="geometry">
            <mxPoint x="330" y="390" as="sourcePoint" />
            <mxPoint x="490" y="390" as="targetPoint" />
          </mxGeometry>
        </mxCell>
        <mxCell id="ZsuKzw9eglKgLbAO7jWE-64" value="" style="endArrow=none;html=1;rounded=0;" edge="1" parent="1" source="ZsuKzw9eglKgLbAO7jWE-26" target="ZsuKzw9eglKgLbAO7jWE-22">
          <mxGeometry relative="1" as="geometry">
            <mxPoint x="330" y="390" as="sourcePoint" />
            <mxPoint x="490" y="390" as="targetPoint" />
          </mxGeometry>
        </mxCell>
        <mxCell id="ZsuKzw9eglKgLbAO7jWE-67" value="" style="endArrow=block;endSize=16;endFill=0;html=1;rounded=0;" edge="1" parent="1" source="ZsuKzw9eglKgLbAO7jWE-73" target="ZsuKzw9eglKgLbAO7jWE-30">
          <mxGeometry width="160" relative="1" as="geometry">
            <mxPoint x="320" y="580" as="sourcePoint" />
            <mxPoint x="490" y="390" as="targetPoint" />
          </mxGeometry>
        </mxCell>
        <mxCell id="ZsuKzw9eglKgLbAO7jWE-68" value="" style="endArrow=block;endSize=16;endFill=0;html=1;rounded=0;" edge="1" parent="1" source="ZsuKzw9eglKgLbAO7jWE-69" target="ZsuKzw9eglKgLbAO7jWE-30">
          <mxGeometry width="160" relative="1" as="geometry">
            <mxPoint x="490" y="590" as="sourcePoint" />
            <mxPoint x="388" y="530" as="targetPoint" />
          </mxGeometry>
        </mxCell>
        <mxCell id="ZsuKzw9eglKgLbAO7jWE-69" value="Paleta" style="swimlane;fontStyle=1;align=center;verticalAlign=top;childLayout=stackLayout;horizontal=1;startSize=26;horizontalStack=0;resizeParent=1;resizeParentMax=0;resizeLast=0;collapsible=1;marginBottom=0;whiteSpace=wrap;html=1;" vertex="1" parent="1">
          <mxGeometry x="450" y="585" width="160" height="60" as="geometry" />
        </mxCell>
        <mxCell id="ZsuKzw9eglKgLbAO7jWE-70" value="+ field: type" style="text;strokeColor=none;fillColor=none;align=left;verticalAlign=top;spacingLeft=4;spacingRight=4;overflow=hidden;rotatable=0;points=[[0,0.5],[1,0.5]];portConstraint=eastwest;whiteSpace=wrap;html=1;" vertex="1" parent="ZsuKzw9eglKgLbAO7jWE-69">
          <mxGeometry y="26" width="160" height="26" as="geometry" />
        </mxCell>
        <mxCell id="ZsuKzw9eglKgLbAO7jWE-71" value="" style="line;strokeWidth=1;fillColor=none;align=left;verticalAlign=middle;spacingTop=-1;spacingLeft=3;spacingRight=3;rotatable=0;labelPosition=right;points=[];portConstraint=eastwest;strokeColor=inherit;" vertex="1" parent="ZsuKzw9eglKgLbAO7jWE-69">
          <mxGeometry y="52" width="160" height="8" as="geometry" />
        </mxCell>
        <mxCell id="ZsuKzw9eglKgLbAO7jWE-73" value="Bote" style="swimlane;fontStyle=1;align=center;verticalAlign=top;childLayout=stackLayout;horizontal=1;startSize=26;horizontalStack=0;resizeParent=1;resizeParentMax=0;resizeLast=0;collapsible=1;marginBottom=0;whiteSpace=wrap;html=1;" vertex="1" parent="1">
          <mxGeometry x="230" y="585" width="160" height="60" as="geometry" />
        </mxCell>
        <mxCell id="ZsuKzw9eglKgLbAO7jWE-74" value="+Sabores" style="text;strokeColor=none;fillColor=none;align=left;verticalAlign=top;spacingLeft=4;spacingRight=4;overflow=hidden;rotatable=0;points=[[0,0.5],[1,0.5]];portConstraint=eastwest;whiteSpace=wrap;html=1;" vertex="1" parent="ZsuKzw9eglKgLbAO7jWE-73">
          <mxGeometry y="26" width="160" height="26" as="geometry" />
        </mxCell>
        <mxCell id="ZsuKzw9eglKgLbAO7jWE-75" value="" style="line;strokeWidth=1;fillColor=none;align=left;verticalAlign=middle;spacingTop=-1;spacingLeft=3;spacingRight=3;rotatable=0;labelPosition=right;points=[];portConstraint=eastwest;strokeColor=inherit;" vertex="1" parent="ZsuKzw9eglKgLbAO7jWE-73">
          <mxGeometry y="52" width="160" height="8" as="geometry" />
        </mxCell>
      </root>
    </mxGraphModel>
  </diagram>
</mxfile>
